<svg xmlns="http://www.w3.org/2000/svg" xmlns:svg="http://www.w3.org/2000/svg" id="svg5" version="1.1" viewBox="0 0 16 16"><defs id="defs9"><rect id="rect51119" width="24.751" height="28.618" x="-4.585" y="-3.005"/></defs><style id="current-color-scheme" type="text/css">.ColorScheme-Text{color:#232629}</style><path id="path3" fill="currentColor" d="M8 2a4 4 0 0 0-4 4v4a4 4 0 0 0 4 4h1a4 4 0 0 0 4-4V6a4 4 0 0 0-4-4zm0 1h1a3 3 0 0 1 3 3v4a3 3 0 0 1-3 3H8a3 3 0 0 1-3-3V6a3 3 0 0 1 3-3zm0 1v3h1V4z" class="ColorScheme-Text"/><text xml:space="preserve" style="font-size:2.66667px;line-height:95%;font-family:Sans;letter-spacing:0;word-spacing:0;fill:none;stroke:#000;stroke-width:1px;stroke-linecap:butt;stroke-linejoin:miter;stroke-opacity:1" id="text7163" x="7.673" y="11.002"><tspan id="tspan7161" x="7.673" y="11.002" style="opacity:1">A</tspan></text></svg>